<?xml version="1.0" standalone="no"?><!DOCTYPE svg PUBLIC "-//W3C//DTD SVG 1.1//EN" "http://www.w3.org/Graphics/SVG/1.1/DTD/svg11.dtd"><svg t="1642146770833" class="icon" viewBox="0 0 1024 1024" version="1.1" xmlns="http://www.w3.org/2000/svg" p-id="27639" xmlns:xlink="http://www.w3.org/1999/xlink" width="200" height="200"><defs><style type="text/css"></style></defs><path d="M278.87616 793.6H139.4176a47.01184 47.01184 0 0 1-46.88384-47.04768V389.12a47.01184 47.01184 0 0 1 46.88384-47.04256h139.45856A47.01184 47.01184 0 0 1 325.76 389.12v357.44256A47.01184 47.01184 0 0 1 278.87616 793.6z m-119.46496-67.10784h99.47648V409.18016H159.4112v317.31712zM882.97984 793.6h-139.45856a47.01184 47.01184 0 0 1-46.88384-47.04768v-221.37344a47.01184 47.01184 0 0 1 46.88384-47.04768h139.45856a47.01696 47.01696 0 0 1 46.88384 47.04768v221.37344a47.01696 47.01696 0 0 1-46.88384 47.04768z m-119.47008-67.10784h99.47648v-181.248h-99.47648v181.248zM580.93056 793.6H441.46688a47.01184 47.01184 0 0 1-46.88384-47.04768V149.43744A47.01184 47.01184 0 0 1 441.46688 102.4h139.46368a47.01184 47.01184 0 0 1 46.87872 47.04256v597.10976a47.01184 47.01184 0 0 1-46.87872 47.04768z m-119.4752-67.10784h99.47648V169.50784H461.45536v556.98432z" fill="#4A4A4A" p-id="27640"></path><path d="M918.87616 922.93632H105.12384a33.82272 33.82272 0 0 1 0-67.64032h813.75232a33.82272 33.82272 0 0 1 0 67.64032z" fill="#FF7214" p-id="27641"></path></svg>